# xmcd
#
# Track frame offsets:
#	225
#	12412
#	26597
#	38204
#	57383
#	67027
#	79912
#	93719
#	105688
#	118446
#	133998
#	146981
#	164290
#	176851
#
# Disc length: 2519 seconds
#
# Revision: 0
# Processed by: cddbd v1.5.1PL0 Copyright (c) Steve Scherf et al.
# Submitted via: audiograbber 1.83.01
#
DISCID=db09d40e
DTITLE=Alpenoberkrainer Alpski Kvintet - Ich liebe dich Slowenien
DYEAR=1900
DGENRE=Volksmusik
TTITLE0=Auf der Reise
TTITLE1=Wir machen Urlaub
TTITLE2=A fesche Lederhosen
TTITLE3=Weißer Flieder
TTITLE4=Auf nach Kranjska Gora
TTITLE5=Ach Rosi
TTITLE6=Dor wo wir zuhause sind
TTITLE7=Ivan spielt auf
TTITLE8=Polkakönig
TTITLE9=Rosen nur für Dich
TTITLE10=Auf der Höh
TTITLE11=Ich liebe dich Slowenien
TTITLE12=Wir seh'n uns wieder
TTITLE13=Abendrot
EXTD=
EXTT0=
EXTT1=
EXTT2=
EXTT3=
EXTT4=
EXTT5=
EXTT6=
EXTT7=
EXTT8=
EXTT9=
EXTT10=
EXTT11=
EXTT12=
EXTT13=
PLAYORDER=
